<?xml version="1.0" encoding="UTF-8"?>
<svg width="413px" height="59px" viewBox="0 0 413 59" version="1.1" xmlns="http://www.w3.org/2000/svg" xmlns:xlink="http://www.w3.org/1999/xlink">
    <title>Shape</title>
    <g id="Page-1" stroke="none" stroke-width="1" fill="none" fill-rule="evenodd">
        <g id="Nova-Chain-Logo" transform="translate(-84.000000, -139.000000)" fill-rule="nonzero">
            <polygon id="Path" fill="#FFFFFF" points="0 0 600 0 600 600 0 600"></polygon>
            <path d="M100.866,191.861 C105.21,191.861 108.731,188.339 108.731,183.995 C108.731,179.651 105.21,176.129 100.866,176.129 C96.5216,176.129 93,179.651 93,183.995 C93,188.339 96.5216,191.861 100.866,191.861 Z" id="Path" fill="#000000"></path>
            <path d="M142.554,152.645 C142.553,154.42 141.953,156.143 140.849,157.534 C139.746,158.924 138.204,159.901 136.476,160.304 C134.747,160.708 132.932,160.514 131.327,159.756 C129.722,158.997 128.421,157.718 127.635,156.126 C126.849,154.534 126.625,152.724 126.999,150.988 C127.372,149.253 128.322,147.695 129.694,146.568 C131.065,145.44 132.778,144.81 134.553,144.78 C136.328,144.749 138.061,145.32 139.47,146.399 C140.429,147.134 141.206,148.079 141.741,149.162 C142.276,150.245 142.554,151.437 142.554,152.645 L142.554,152.645 Z" id="Path" fill="#000000"></path>
            <path d="M137.129,169.776 C136.32,169.892 135.505,169.95 134.688,169.949 C134.076,169.95 133.465,169.918 132.856,169.853 C130.751,169.63 128.706,169.021 126.822,168.055 C123.572,166.393 120.93,163.746 119.273,160.494 C116.314,154.686 113.841,147.584 107.558,145.852 C105.133,145.184 103.255,144.891 102.23,144.768 L102.205,144.768 C101.819,144.723 101.556,144.7 101.436,144.691 L101.153,144.667 L100.929,144.667 L100.704,144.667 C100.026,144.693 99.3535,144.805 98.7037,145.002 C97.1404,145.475 95.7633,146.423 94.7633,147.715 C93.7634,149.006 93.1903,150.577 93.1236,152.209 L93.1236,152.636 L93.1236,152.807 C93.1499,158.889 95.5337,164.723 99.7735,169.084 C99.9551,169.271 100.14,169.455 100.327,169.636 C103.817,173 108.72,169.744 108.72,164.897 L108.72,163.045 C113.003,165.16 118.145,168.92 122.28,175.574 C124.319,178.901 125.912,182.481 127.02,186.222 C127.024,186.24 127.03,186.258 127.036,186.276 C127.067,186.382 127.103,186.487 127.139,186.591 C127.175,186.694 127.209,186.784 127.245,186.878 C127.244,186.885 127.244,186.892 127.245,186.899 C127.283,187 127.326,187.101 127.371,187.2 C127.434,187.341 127.499,187.478 127.571,187.613 C127.643,187.748 127.676,187.813 127.732,187.91 C127.789,188.006 127.836,188.087 127.892,188.175 C127.948,188.263 127.984,188.321 128.034,188.4 C128.103,188.505 128.177,188.607 128.258,188.708 C128.339,188.809 128.413,188.908 128.483,189.007 L128.604,189.15 L128.73,189.292 C128.771,189.337 128.813,189.38 128.856,189.425 L128.984,189.555 C129.134,189.705 129.284,189.846 129.434,189.98 L129.593,190.112 C129.771,190.256 129.955,190.391 130.146,190.519 C130.232,190.575 130.317,190.631 130.405,190.685 C130.584,190.798 130.769,190.91 130.957,190.998 L131.218,191.124 C131.312,191.168 131.407,191.209 131.501,191.249 C131.596,191.29 131.692,191.328 131.789,191.364 C131.886,191.4 131.982,191.434 132.079,191.465 C132.175,191.497 132.265,191.526 132.36,191.553 L132.393,191.553 C132.483,191.577 132.571,191.602 132.661,191.622 C132.861,191.672 133.063,191.715 133.268,191.746 L133.301,191.746 C133.692,191.793 133.958,191.816 134.079,191.825 L134.362,191.84 L134.537,191.84 L134.841,191.84 L134.818,191.84 C136.875,191.796 138.833,190.948 140.272,189.478 C141.71,188.008 142.516,186.032 142.515001,183.975 L142.515001,173.726 C142.515001,171.133 139.694,169.399 137.129,169.776 L137.129,169.776 Z M142.439,184.197 C142.436,184.399 142.424,184.6 142.401,184.8 C142.421,184.602 142.435,184.4 142.439,184.197 C142.439,184.13 142.439,184.062 142.439,183.995 C142.439,183.928 142.439,183.797 142.439,183.698 L142.439,183.997 C142.439,184.096 142.444,184.132 142.439,184.197 Z" id="Shape" fill="#000000"></path>
            <path d="M195.016,146.84 C195.016,146.413 195.229,146.2 195.656,146.2 L200.456,146.2 C200.883,146.2 201.096,146.413 201.096,146.84 L201.096,190.36 C201.096,190.787 200.883,191 200.456,191 L194.952,191 C194.611,191 194.376,190.829 194.248,190.488 L183.368,161.24 C183.325,161.155 183.261,161.133 183.176,161.176 C183.091,161.176 183.048,161.219 183.048,161.304 L183.112,190.36 C183.112,190.787 182.899,191 182.472,191 L177.608,191 C177.181,191 176.968,190.787 176.968,190.36 L176.968,146.84 C176.968,146.413 177.181,146.2 177.608,146.2 L183.048,146.2 C183.389,146.2 183.624,146.371 183.752,146.712 L194.696,175.96 C194.739,176.088 194.803,176.152 194.888,176.152 C194.973,176.109 195.016,176.024 195.016,175.896 L195.016,146.84 Z M226.183,191.512 C222.684,191.512 219.868,190.445 217.735,188.312 C215.601,186.179 214.535,183.341 214.535,179.8 L214.535,157.464 C214.535,153.923 215.601,151.085 217.735,148.952 C219.868,146.776 222.684,145.688 226.183,145.688 C229.724,145.688 232.561,146.776 234.695,148.952 C236.871,151.085 237.959,153.923 237.959,157.464 L237.959,179.8 C237.959,183.341 236.871,186.179 234.695,188.312 C232.561,190.445 229.724,191.512 226.183,191.512 Z M226.183,186.2 C227.889,186.2 229.255,185.645 230.279,184.536 C231.303,183.384 231.815,181.891 231.815,180.056 L231.815,157.144 C231.815,155.309 231.303,153.837 230.279,152.728 C229.255,151.576 227.889,151 226.183,151 C224.519,151 223.175,151.576 222.151,152.728 C221.169,153.837 220.679,155.309 220.679,157.144 L220.679,180.056 C220.679,181.891 221.169,183.384 222.151,184.536 C223.175,185.645 224.519,186.2 226.183,186.2 Z M259.204,191 C258.82,191 258.585,190.808 258.5,190.424 L249.284,146.904 L249.284,146.776 C249.284,146.392 249.476,146.2 249.86,146.2 L255.172,146.2 C255.599,146.2 255.833,146.392 255.876,146.776 L261.956,179.992 C261.999,180.077 262.041,180.12 262.084,180.12 C262.127,180.12 262.169,180.077 262.212,179.992 L268.164,146.776 C268.249,146.392 268.484,146.2 268.868,146.2 L273.988,146.2 C274.457,146.2 274.649,146.435 274.564,146.904 L265.348,190.424 C265.305,190.808 265.071,191 264.644,191 L259.204,191 Z M300.704,191 C300.32,191 300.085,190.808 300,190.424 L298.592,183.064 C298.592,182.979 298.549,182.915 298.464,182.872 C298.421,182.829 298.357,182.808 298.272,182.808 L287.84,182.808 C287.755,182.808 287.669,182.829 287.584,182.872 C287.541,182.915 287.52,182.979 287.52,183.064 L286.176,190.424 C286.133,190.808 285.899,191 285.472,191 L280.608,191 C280.395,191 280.224,190.936 280.096,190.808 C280.011,190.68 279.989,190.509 280.032,190.296 L289.568,146.776 C289.653,146.392 289.888,146.2 290.272,146.2 L295.968,146.2 C296.395,146.2 296.629,146.392 296.672,146.776 L306.272,190.296 L306.272,190.424 C306.272,190.808 306.08,191 305.696,191 L300.704,191 Z M288.608,177.688 C288.608,177.859 288.672,177.944 288.8,177.944 L297.312,177.944 C297.44,177.944 297.504,177.859 297.504,177.688 L293.152,154.968 C293.109,154.883 293.067,154.84 293.024,154.84 C292.981,154.84 292.939,154.883 292.896,154.968 L288.608,177.688 Z M347.28,191.512 C343.824,191.512 341.029,190.467 338.896,188.376 C336.805,186.243 335.76,183.427 335.76,179.928 L335.76,157.208 C335.76,153.709 336.805,150.915 338.896,148.824 C341.029,146.733 343.824,145.688 347.28,145.688 C350.778,145.688 353.573,146.733 355.664,148.824 C357.797,150.915 358.864,153.709 358.864,157.208 L358.864,158.232 C358.864,158.659 358.65,158.872 358.224,158.872 L353.36,159.128 C352.933,159.128 352.72,158.915 352.72,158.488 L352.72,156.824 C352.72,155.075 352.208,153.667 351.184,152.6 C350.202,151.533 348.901,151 347.28,151 C345.658,151 344.357,151.533 343.376,152.6 C342.394,153.667 341.904,155.075 341.904,156.824 L341.904,180.376 C341.904,182.125 342.394,183.533 343.376,184.6 C344.357,185.667 345.658,186.2 347.28,186.2 C348.901,186.2 350.202,185.667 351.184,184.6 C352.208,183.533 352.72,182.125 352.72,180.376 L352.72,178.712 C352.72,178.285 352.933,178.072 353.36,178.072 L358.224,178.328 C358.65,178.328 358.864,178.541 358.864,178.968 L358.864,179.928 C358.864,183.427 357.797,186.243 355.664,188.376 C353.573,190.467 350.778,191.512 347.28,191.512 L347.28,191.512 Z M388.313,146.84 C388.313,146.413 388.526,146.2 388.953,146.2 L393.817,146.2 C394.244,146.2 394.457,146.413 394.457,146.84 L394.457,190.36 C394.457,190.787 394.244,191 393.817,191 L388.953,191 C388.526,191 388.313,190.787 388.313,190.36 L388.313,171.48 C388.313,171.309 388.228,171.224 388.057,171.224 L378.393,171.224 C378.222,171.224 378.137,171.309 378.137,171.48 L378.137,190.36 C378.137,190.787 377.924,191 377.497,191 L372.633,191 C372.206,191 371.993,190.787 371.993,190.36 L371.993,146.84 C371.993,146.413 372.206,146.2 372.633,146.2 L377.497,146.2 C377.924,146.2 378.137,146.413 378.137,146.84 L378.137,165.656 C378.137,165.827 378.222,165.912 378.393,165.912 L388.057,165.912 C388.228,165.912 388.313,165.827 388.313,165.656 L388.313,146.84 Z M426.304,191 C425.92,191 425.685,190.808 425.6,190.424 L424.192,183.064 C424.192,182.979 424.149,182.915 424.064,182.872 C424.021,182.829 423.957,182.808 423.872,182.808 L413.44,182.808 C413.355,182.808 413.269,182.829 413.184,182.872 C413.141,182.915 413.12,182.979 413.12,183.064 L411.776,190.424 C411.733,190.808 411.499,191 411.072,191 L406.208,191 C405.995,191 405.824,190.936 405.696,190.808 C405.611,190.68 405.589,190.509 405.632,190.296 L415.168,146.776 C415.253,146.392 415.488,146.2 415.872,146.2 L421.568,146.2 C421.995,146.2 422.229,146.392 422.272,146.776 L431.872,190.296 L431.872,190.424 C431.872,190.808 431.68,191 431.296,191 L426.304,191 Z M414.208,177.688 C414.208,177.859 414.272,177.944 414.4,177.944 L422.912,177.944 C423.04,177.944 423.104,177.859 423.104,177.688 L418.752,154.968 C418.709,154.883 418.667,154.84 418.624,154.84 C418.581,154.84 418.539,154.883 418.496,154.968 L414.208,177.688 Z M443.683,191 C443.256,191 443.043,190.787 443.043,190.36 L443.043,146.84 C443.043,146.413 443.256,146.2 443.683,146.2 L448.547,146.2 C448.974,146.2 449.187,146.413 449.187,146.84 L449.187,190.36 C449.187,190.787 448.974,191 448.547,191 L443.683,191 Z M481.554,146.84 C481.554,146.413 481.767,146.2 482.194,146.2 L486.994,146.2 C487.42,146.2 487.634,146.413 487.634,146.84 L487.634,190.36 C487.634,190.787 487.42,191 486.994,191 L481.49,191 C481.148,191 480.914,190.829 480.786,190.488 L469.906,161.24 C469.863,161.155 469.799,161.133 469.714,161.176 C469.628,161.176 469.586,161.219 469.586,161.304 L469.65,190.36 C469.65,190.787 469.436,191 469.01,191 L464.146,191 C463.719,191 463.506,190.787 463.506,190.36 L463.506,146.84 C463.506,146.413 463.719,146.2 464.146,146.2 L469.586,146.2 C469.927,146.2 470.162,146.371 470.29,146.712 L481.234,175.96 C481.276,176.088 481.34,176.152 481.426,176.152 C481.511,176.109 481.554,176.024 481.554,175.896 L481.554,146.84 Z" id="Shape" fill="#000000"></path>
        </g>
    </g>
</svg>