<?xml version="1.0" encoding="UTF-8"?>
<svg width="413px" height="59px" viewBox="0 0 413 59" version="1.1" xmlns="http://www.w3.org/2000/svg" xmlns:xlink="http://www.w3.org/1999/xlink">
    <title>Shape</title>
    <g id="Page-1" stroke="none" stroke-width="1" fill="none" fill-rule="evenodd">
        <path d="M16.866,52.861 C21.21,52.861 24.731,49.339 24.731,44.995 C24.731,40.651 21.21,37.129 16.866,37.129 C12.5216,37.129 9,40.651 9,44.995 C9,49.339 12.5216,52.861 16.866,52.861 Z" id="Path" fill="#000000" fill-rule="nonzero"></path>
        <path d="M58.554,13.645 C58.553,15.42 57.953,17.143 56.849,18.534 C55.746,19.924 54.204,20.901 52.476,21.304 C50.747,21.708 48.932,21.514 47.327,20.756 C45.722,19.997 44.421,18.718 43.635,17.126 C42.849,15.534 42.625,13.724 42.999,11.988 C43.372,10.253 44.322,8.695 45.694,7.568 C47.065,6.44 48.778,5.81 50.553,5.78 C52.328,5.749 54.061,6.32 55.47,7.399 C56.429,8.134 57.206,9.079 57.741,10.162 C58.276,11.245 58.554,12.437 58.554,13.645 L58.554,13.645 Z" id="Path" fill="#000000" fill-rule="nonzero"></path>
        <path d="M53.129,30.776 C52.32,30.892 51.505,30.95 50.688,30.949 C50.076,30.95 49.465,30.918 48.856,30.853 C46.751,30.63 44.706,30.021 42.822,29.055 C39.572,27.393 36.93,24.746 35.273,21.494 C32.314,15.686 29.841,8.584 23.558,6.852 C21.133,6.184 19.255,5.891 18.23,5.768 L18.205,5.768 C17.819,5.723 17.556,5.7 17.436,5.691 L17.153,5.667 L16.929,5.667 L16.704,5.667 C16.026,5.693 15.3535,5.805 14.7037,6.002 C13.1404,6.475 11.7633,7.423 10.7633,8.715 C9.7634,10.006 9.1903,11.577 9.1236,13.209 L9.1236,13.636 L9.1236,13.807 C9.1499,19.889 11.5337,25.723 15.7735,30.084 C15.9551,30.271 16.14,30.455 16.327,30.636 C19.817,34 24.72,30.744 24.72,25.897 L24.72,24.045 C29.003,26.16 34.145,29.92 38.28,36.574 C40.319,39.901 41.912,43.481 43.02,47.222 C43.024,47.24 43.03,47.258 43.036,47.276 C43.067,47.382 43.103,47.487 43.139,47.591 C43.175,47.694 43.209,47.784 43.245,47.878 C43.244,47.885 43.244,47.892 43.245,47.899 C43.283,48 43.326,48.101 43.371,48.2 C43.434,48.341 43.499,48.478 43.571,48.613 C43.643,48.748 43.676,48.813 43.732,48.91 C43.789,49.006 43.836,49.087 43.892,49.175 C43.948,49.263 43.984,49.321 44.034,49.4 C44.103,49.505 44.177,49.607 44.258,49.708 C44.339,49.809 44.413,49.908 44.483,50.007 L44.604,50.15 L44.73,50.292 C44.771,50.337 44.813,50.38 44.856,50.425 L44.984,50.555 C45.134,50.705 45.284,50.846 45.434,50.98 L45.593,51.112 C45.771,51.256 45.955,51.391 46.146,51.519 C46.232,51.575 46.317,51.631 46.405,51.685 C46.584,51.798 46.769,51.91 46.957,51.998 L47.218,52.124 C47.312,52.168 47.407,52.209 47.501,52.249 C47.596,52.29 47.692,52.328 47.789,52.364 C47.886,52.4 47.982,52.434 48.079,52.465 C48.175,52.497 48.265,52.526 48.36,52.553 L48.393,52.553 C48.483,52.577 48.571,52.602 48.661,52.622 C48.861,52.672 49.063,52.715 49.268,52.746 L49.301,52.746 C49.692,52.793 49.958,52.816 50.079,52.825 L50.362,52.84 L50.537,52.84 L50.841,52.84 L50.818,52.84 C52.875,52.796 54.833,51.948 56.272,50.478 C57.71,49.008 58.516,47.032 58.5150009,44.975 L58.5150009,34.726 C58.5150009,32.133 55.694,30.399 53.129,30.776 L53.129,30.776 Z M58.439,45.197 C58.436,45.399 58.424,45.6 58.401,45.8 C58.421,45.602 58.435,45.4 58.439,45.197 C58.439,45.13 58.439,45.062 58.439,44.995 C58.439,44.928 58.439,44.797 58.439,44.698 L58.439,44.997 C58.439,45.096 58.444,45.132 58.439,45.197 Z" id="Shape" fill="#000000" fill-rule="nonzero"></path>
        <path d="M111.016,7.84 C111.016,7.413 111.229,7.2 111.656,7.2 L116.456,7.2 C116.883,7.2 117.096,7.413 117.096,7.84 L117.096,51.36 C117.096,51.787 116.883,52 116.456,52 L110.952,52 C110.611,52 110.376,51.829 110.248,51.488 L99.368,22.24 C99.325,22.155 99.261,22.133 99.176,22.176 C99.091,22.176 99.048,22.219 99.048,22.304 L99.112,51.36 C99.112,51.787 98.899,52 98.472,52 L93.608,52 C93.181,52 92.968,51.787 92.968,51.36 L92.968,7.84 C92.968,7.413 93.181,7.2 93.608,7.2 L99.048,7.2 C99.389,7.2 99.624,7.371 99.752,7.712 L110.696,36.96 C110.739,37.088 110.803,37.152 110.888,37.152 C110.973,37.109 111.016,37.024 111.016,36.896 L111.016,7.84 Z M142.183,52.512 C138.684,52.512 135.868,51.445 133.735,49.312 C131.601,47.179 130.535,44.341 130.535,40.8 L130.535,18.464 C130.535,14.923 131.601,12.085 133.735,9.952 C135.868,7.776 138.684,6.688 142.183,6.688 C145.724,6.688 148.561,7.776 150.695,9.952 C152.871,12.085 153.959,14.923 153.959,18.464 L153.959,40.8 C153.959,44.341 152.871,47.179 150.695,49.312 C148.561,51.445 145.724,52.512 142.183,52.512 Z M142.183,47.2 C143.889,47.2 145.255,46.645 146.279,45.536 C147.303,44.384 147.815,42.891 147.815,41.056 L147.815,18.144 C147.815,16.309 147.303,14.837 146.279,13.728 C145.255,12.576 143.889,12 142.183,12 C140.519,12 139.175,12.576 138.151,13.728 C137.169,14.837 136.679,16.309 136.679,18.144 L136.679,41.056 C136.679,42.891 137.169,44.384 138.151,45.536 C139.175,46.645 140.519,47.2 142.183,47.2 Z M175.204,52 C174.82,52 174.585,51.808 174.5,51.424 L165.284,7.904 L165.284,7.776 C165.284,7.392 165.476,7.2 165.86,7.2 L171.172,7.2 C171.599,7.2 171.833,7.392 171.876,7.776 L177.956,40.992 C177.999,41.077 178.041,41.12 178.084,41.12 C178.127,41.12 178.169,41.077 178.212,40.992 L184.164,7.776 C184.249,7.392 184.484,7.2 184.868,7.2 L189.988,7.2 C190.457,7.2 190.649,7.435 190.564,7.904 L181.348,51.424 C181.305,51.808 181.071,52 180.644,52 L175.204,52 Z M216.704,52 C216.32,52 216.085,51.808 216,51.424 L214.592,44.064 C214.592,43.979 214.549,43.915 214.464,43.872 C214.421,43.829 214.357,43.808 214.272,43.808 L203.84,43.808 C203.755,43.808 203.669,43.829 203.584,43.872 C203.541,43.915 203.52,43.979 203.52,44.064 L202.176,51.424 C202.133,51.808 201.899,52 201.472,52 L196.608,52 C196.395,52 196.224,51.936 196.096,51.808 C196.011,51.68 195.989,51.509 196.032,51.296 L205.568,7.776 C205.653,7.392 205.888,7.2 206.272,7.2 L211.968,7.2 C212.395,7.2 212.629,7.392 212.672,7.776 L222.272,51.296 L222.272,51.424 C222.272,51.808 222.08,52 221.696,52 L216.704,52 Z M204.608,38.688 C204.608,38.859 204.672,38.944 204.8,38.944 L213.312,38.944 C213.44,38.944 213.504,38.859 213.504,38.688 L209.152,15.968 C209.109,15.883 209.067,15.84 209.024,15.84 C208.981,15.84 208.939,15.883 208.896,15.968 L204.608,38.688 Z M263.28,52.512 C259.824,52.512 257.029,51.467 254.896,49.376 C252.805,47.243 251.76,44.427 251.76,40.928 L251.76,18.208 C251.76,14.709 252.805,11.915 254.896,9.824 C257.029,7.733 259.824,6.688 263.28,6.688 C266.778,6.688 269.573,7.733 271.664,9.824 C273.797,11.915 274.864,14.709 274.864,18.208 L274.864,19.232 C274.864,19.659 274.65,19.872 274.224,19.872 L269.36,20.128 C268.933,20.128 268.72,19.915 268.72,19.488 L268.72,17.824 C268.72,16.075 268.208,14.667 267.184,13.6 C266.202,12.533 264.901,12 263.28,12 C261.658,12 260.357,12.533 259.376,13.6 C258.394,14.667 257.904,16.075 257.904,17.824 L257.904,41.376 C257.904,43.125 258.394,44.533 259.376,45.6 C260.357,46.667 261.658,47.2 263.28,47.2 C264.901,47.2 266.202,46.667 267.184,45.6 C268.208,44.533 268.72,43.125 268.72,41.376 L268.72,39.712 C268.72,39.285 268.933,39.072 269.36,39.072 L274.224,39.328 C274.65,39.328 274.864,39.541 274.864,39.968 L274.864,40.928 C274.864,44.427 273.797,47.243 271.664,49.376 C269.573,51.467 266.778,52.512 263.28,52.512 L263.28,52.512 Z M304.313,7.84 C304.313,7.413 304.526,7.2 304.953,7.2 L309.817,7.2 C310.244,7.2 310.457,7.413 310.457,7.84 L310.457,51.36 C310.457,51.787 310.244,52 309.817,52 L304.953,52 C304.526,52 304.313,51.787 304.313,51.36 L304.313,32.48 C304.313,32.309 304.228,32.224 304.057,32.224 L294.393,32.224 C294.222,32.224 294.137,32.309 294.137,32.48 L294.137,51.36 C294.137,51.787 293.924,52 293.497,52 L288.633,52 C288.206,52 287.993,51.787 287.993,51.36 L287.993,7.84 C287.993,7.413 288.206,7.2 288.633,7.2 L293.497,7.2 C293.924,7.2 294.137,7.413 294.137,7.84 L294.137,26.656 C294.137,26.827 294.222,26.912 294.393,26.912 L304.057,26.912 C304.228,26.912 304.313,26.827 304.313,26.656 L304.313,7.84 Z M342.304,52 C341.92,52 341.685,51.808 341.6,51.424 L340.192,44.064 C340.192,43.979 340.149,43.915 340.064,43.872 C340.021,43.829 339.957,43.808 339.872,43.808 L329.44,43.808 C329.355,43.808 329.269,43.829 329.184,43.872 C329.141,43.915 329.12,43.979 329.12,44.064 L327.776,51.424 C327.733,51.808 327.499,52 327.072,52 L322.208,52 C321.995,52 321.824,51.936 321.696,51.808 C321.611,51.68 321.589,51.509 321.632,51.296 L331.168,7.776 C331.253,7.392 331.488,7.2 331.872,7.2 L337.568,7.2 C337.995,7.2 338.229,7.392 338.272,7.776 L347.872,51.296 L347.872,51.424 C347.872,51.808 347.68,52 347.296,52 L342.304,52 Z M330.208,38.688 C330.208,38.859 330.272,38.944 330.4,38.944 L338.912,38.944 C339.04,38.944 339.104,38.859 339.104,38.688 L334.752,15.968 C334.709,15.883 334.667,15.84 334.624,15.84 C334.581,15.84 334.539,15.883 334.496,15.968 L330.208,38.688 Z M359.683,52 C359.256,52 359.043,51.787 359.043,51.36 L359.043,7.84 C359.043,7.413 359.256,7.2 359.683,7.2 L364.547,7.2 C364.974,7.2 365.187,7.413 365.187,7.84 L365.187,51.36 C365.187,51.787 364.974,52 364.547,52 L359.683,52 Z M397.554,7.84 C397.554,7.413 397.767,7.2 398.194,7.2 L402.994,7.2 C403.42,7.2 403.634,7.413 403.634,7.84 L403.634,51.36 C403.634,51.787 403.42,52 402.994,52 L397.49,52 C397.148,52 396.914,51.829 396.786,51.488 L385.906,22.24 C385.863,22.155 385.799,22.133 385.714,22.176 C385.628,22.176 385.586,22.219 385.586,22.304 L385.65,51.36 C385.65,51.787 385.436,52 385.01,52 L380.146,52 C379.719,52 379.506,51.787 379.506,51.36 L379.506,7.84 C379.506,7.413 379.719,7.2 380.146,7.2 L385.586,7.2 C385.927,7.2 386.162,7.371 386.29,7.712 L397.234,36.96 C397.276,37.088 397.34,37.152 397.426,37.152 C397.511,37.109 397.554,37.024 397.554,36.896 L397.554,7.84 Z" id="Shape" fill="#000000" fill-rule="nonzero"></path>
    </g>
</svg>